# xmcd
#
# Track frame offsets:
#	150
#	15462
#	28975
#	41812
#	59904
#	75318
#	92360
#	108826
#	123362
#	143043
#	156905
#	170171
#	181116
#	197427
#	211790
#	231094
#	246261
#	263013
#	282852
#	299676
#	314378
#
# Disc length: 4425 seconds
#
# Revision: 0
# Processed by: cddbd v1.5.1PL0 Copyright (c) Steve Scherf et al.
# Submitted via: EasyCDDAExtractor 4.6.9.1
#
DISCID=27114715
DTITLE=Kenny Rogers - 42 Ultimate Hits [CD1]
DYEAR=2004
DGENRE=Country
TTITLE0=Just Dropped In (To See What My Condition Was In)
TTITLE1=Ruby Don't Take Your Love To Town
TTITLE2=Reuben James
TTITLE3=Something's Burning
TTITLE4=Tell It All Brother
TTITLE5=Love Lifted Me
TTITLE6=Lucille
TTITLE7=Daytime Friends (w-Dottie West)
TTITLE8=Sweet Music Man
TTITLE9=Every Time Two Fools Collide (w-Dottie West)
TTITLE10=Love Or Something Like It
TTITLE11=Anyone Who Isn't Me Tonight (w-Dottie West)
TTITLE12=The Gambler
TTITLE13=All I Ever Need Is You (w-Dottie West)
TTITLE14=She Believes In Me
TTITLE15='Till I Can Make It On My Own (w-Dottie West)
TTITLE16=You Decorated My Life
TTITLE17=Coward Of The County
TTITLE18=Don't Fall In Love With A Dreamer (w-Kim Carnes)
TTITLE19=Love The World Away
TTITLE20=Lady
EXTD=YEAR: 2004
EXTT0=
EXTT1=
EXTT2=
EXTT3=
EXTT4=
EXTT5=
EXTT6=
EXTT7=
EXTT8=
EXTT9=
EXTT10=
EXTT11=
EXTT12=
EXTT13=
EXTT14=
EXTT15=
EXTT16=
EXTT17=
EXTT18=
EXTT19=
EXTT20=
PLAYORDER=
